Coordinates
version=1
nRows=27
nColumns=12
inDegrees=yes

Units are S.I. units (second, meters, Newtons, ...)
Angles are in degrees

endheader
time	SC_y	SC_z	SC_x	AC_y	AC_z	AC_x	GH_y	GH_z	GH_yy	EL_x	PS_y
       0.0              -13.66          4.376          55.28          41.05           2.99         -2.128          175.4          50.39         -170.9          115.4          39.23
  0.002405              -13.66          4.377          55.28          41.05          2.989          -2.13          175.3          50.39         -170.9          115.4          39.25
  0.004811              -13.66          4.377          55.28          41.05          2.989         -2.133          175.3          50.39         -170.9          115.4          39.26
  0.007216              -13.66          4.378          55.29          41.06          2.988         -2.135          175.3          50.39         -170.9          115.4          39.27
  0.009621              -13.66          4.379          55.29          41.06          2.987         -2.138          175.2          50.39         -170.9          115.4          39.29
   0.01203              -13.66          4.379           55.3          41.06          2.985         -2.141          175.2          50.39         -170.9          115.3           39.3
   0.01443              -13.66           4.38           55.3          41.07          2.984         -2.144          175.1          50.39         -170.9          115.3          39.32
   0.01684              -13.67          4.381           55.3          41.07          2.983         -2.147          175.1          50.39         -170.9          115.3          39.33
   0.01924              -13.67          4.381          55.31          41.07          2.982          -2.15          175.0          50.39         -170.9          115.3          39.35
   0.02165              -13.67          4.382          55.32          41.08           2.98         -2.154          174.9           50.4         -170.9          115.3          39.37
   0.02405              -13.67          4.383          55.32          41.08          2.979         -2.158          174.9           50.4         -170.9          115.2          39.39
   0.02646              -13.68          4.384          55.33          41.09          2.977         -2.162          174.8           50.4         -170.9          115.2          39.42
   0.02886              -13.68          4.385          55.33          41.09          2.975         -2.167          174.7           50.4         -170.9          115.2          39.44
   0.03127              -13.68          4.386          55.34           41.1          2.973         -2.172          174.6           50.4         -170.9          115.1          39.47
   0.03367              -13.69          4.387          55.35           41.1          2.971         -2.177          174.5           50.4         -170.9          115.1           39.5
   0.03608              -13.69          4.389          55.36          41.11          2.969         -2.183          174.4           50.4         -170.9          115.0          39.53
   0.03849              -13.69           4.39          55.37          41.12          2.966         -2.189          174.3          50.41         -170.9          115.0          39.56
   0.04089               -13.7          4.392          55.38          41.13          2.963         -2.196          174.2          50.41         -170.9          115.0           39.6
    0.0433               -13.7          4.393          55.39          41.14           2.96         -2.204          174.1          50.41         -170.9          114.9          39.64
    0.0457              -13.71          4.395           55.4          41.14          2.957         -2.212          173.9          50.41         -170.9          114.8          39.68
   0.04811              -13.71          4.397          55.41          41.15          2.953         -2.221          173.8          50.42         -170.9          114.8          39.73
   0.05051              -13.72            4.4          55.43          41.17          2.949         -2.231          173.6          50.42         -170.9          114.7          39.78
   0.05292              -13.73          4.402          55.44          41.18          2.945         -2.242          173.4          50.42         -170.9          114.6          39.84
   0.05532              -13.73          4.405          55.46          41.19           2.94         -2.254          173.2          50.43         -170.9          114.5          39.91
   0.05773              -13.74          4.408          55.48          41.21          2.935         -2.268          173.0          50.43         -170.9          114.4          39.98
   0.06013              -13.75          4.411           55.5          41.23          2.929         -2.283          172.7          50.44         -170.9          114.3          40.06
   0.06254              -13.76          4.415          55.53          41.24          2.922           -2.3          172.4          50.44         -170.8          114.2          40.15
